<svg width="48" height="48" viewBox="0 0 48 48" fill="none" xmlns="http://www.w3.org/2000/svg">
<path d="M18 43.5H12C11.8011 43.5 11.6103 43.579 11.4697 43.7197C11.329 43.8603 11.25 44.0511 11.25 44.25C11.25 44.4489 11.329 44.6397 11.4697 44.7803C11.6103 44.921 11.8011 45 12 45H18C18.1989 45 18.3897 44.921 18.5303 44.7803C18.671 44.6397 18.75 44.4489 18.75 44.25C18.75 44.0511 18.671 43.8603 18.5303 43.7197C18.3897 43.579 18.1989 43.5 18 43.5Z" fill="white"/>
<path d="M43.875 15H28.5V3.375C28.4992 2.67904 28.2224 2.01181 27.7303 1.51969C27.2382 1.02758 26.571 0.750769 25.875 0.75H4.125C3.42904 0.750769 2.76181 1.02758 2.26969 1.51969C1.77758 2.01181 1.50077 2.67904 1.5 3.375V44.625C1.50077 45.321 1.77758 45.9882 2.26969 46.4803C2.76181 46.9724 3.42904 47.2492 4.125 47.25H25.875C26.571 47.2492 27.2382 46.9724 27.7303 46.4803C28.2224 45.9882 28.4992 45.321 28.5 44.625V33.75H43.875C44.571 33.7492 45.2382 33.4724 45.7303 32.9803C46.2224 32.4882 46.4992 31.821 46.5 31.125V17.625C46.4992 16.929 46.2224 16.2618 45.7303 15.7697C45.2382 15.2776 44.571 15.0008 43.875 15ZM18.5391 2.25L18.1641 3.75H11.8359L11.4609 2.25H18.5391ZM27 44.625C26.9998 44.9233 26.8811 45.2093 26.6702 45.4202C26.4593 45.6311 26.1733 45.7498 25.875 45.75H4.125C3.82671 45.7498 3.5407 45.6311 3.32978 45.4202C3.11885 45.2093 3.00025 44.9233 3 44.625V3.375C3.00025 3.07671 3.11885 2.7907 3.32978 2.57978C3.5407 2.36885 3.82671 2.25025 4.125 2.25H9.91406L10.5225 4.68187C10.5631 4.84413 10.6567 4.98817 10.7885 5.09111C10.9203 5.19405 11.0828 5.24997 11.25 5.25H18.75C18.9172 5.24997 19.0797 5.19405 19.2115 5.09111C19.3433 4.98817 19.4369 4.84413 19.4775 4.68187L20.0859 2.25H25.875C26.1733 2.25025 26.4593 2.36885 26.6702 2.57978C26.8811 2.7907 26.9998 3.07671 27 3.375V44.625ZM28.5 26.25H30.75V29.25H28.5V26.25ZM45 31.125C44.9998 31.4233 44.8811 31.7093 44.6702 31.9202C44.4593 32.1311 44.1733 32.2498 43.875 32.25H28.5V30.75H31.5C31.6989 30.75 31.8897 30.671 32.0303 30.5303C32.171 30.3897 32.25 30.1989 32.25 30V25.5C32.25 25.3011 32.171 25.1103 32.0303 24.9697C31.8897 24.829 31.6989 24.75 31.5 24.75H28.5V22.5H45V31.125ZM45 21H28.5V19.5H45V21ZM45 18H28.5V16.5H43.875C44.1733 16.5002 44.4593 16.6189 44.6702 16.8298C44.8811 17.0407 44.9998 17.3267 45 17.625V18Z" fill="white"/>
<path d="M42.75 24.75H36C35.8011 24.75 35.6103 24.829 35.4697 24.9697C35.329 25.1103 35.25 25.3011 35.25 25.5C35.25 25.6989 35.329 25.8897 35.4697 26.0303C35.6103 26.171 35.8011 26.25 36 26.25H42.75C42.9489 26.25 43.1397 26.171 43.2803 26.0303C43.421 25.8897 43.5 25.6989 43.5 25.5C43.5 25.3011 43.421 25.1103 43.2803 24.9697C43.1397 24.829 42.9489 24.75 42.75 24.75Z" fill="white"/>
<path d="M42.75 27H36C35.8011 27 35.6103 27.079 35.4697 27.2197C35.329 27.3603 35.25 27.5511 35.25 27.75C35.25 27.9489 35.329 28.1397 35.4697 28.2803C35.6103 28.421 35.8011 28.5 36 28.5H42.75C42.9489 28.5 43.1397 28.421 43.2803 28.2803C43.421 28.1397 43.5 27.9489 43.5 27.75C43.5 27.5511 43.421 27.3603 43.2803 27.2197C43.1397 27.079 42.9489 27 42.75 27Z" fill="white"/>
<path d="M42.75 29.25H39.75C39.5511 29.25 39.3603 29.329 39.2197 29.4697C39.079 29.6103 39 29.8011 39 30C39 30.1989 39.079 30.3897 39.2197 30.5303C39.3603 30.671 39.5511 30.75 39.75 30.75H42.75C42.9489 30.75 43.1397 30.671 43.2803 30.5303C43.421 30.3897 43.5 30.1989 43.5 30C43.5 29.8011 43.421 29.6103 43.2803 29.4697C43.1397 29.329 42.9489 29.25 42.75 29.25Z" fill="white"/>
<path d="M15 15C13.22 15 11.4799 15.5278 9.99987 16.5168C8.51983 17.5057 7.36628 18.9113 6.68509 20.5558C6.0039 22.2004 5.82567 24.01 6.17294 25.7558C6.5202 27.5016 7.37737 29.1053 8.63604 30.364C9.89472 31.6226 11.4984 32.4798 13.2442 32.8271C14.99 33.1743 16.7996 32.9961 18.4442 32.3149C20.0887 31.6337 21.4943 30.4802 22.4832 29.0001C23.4722 27.5201 24 25.78 24 24C23.9973 21.6139 23.0483 19.3262 21.361 17.639C19.6738 15.9518 17.3861 15.0027 15 15ZM15 31.5C13.5166 31.5 12.0666 31.0601 10.8332 30.236C9.59986 29.4119 8.63857 28.2406 8.07091 26.8701C7.50325 25.4997 7.35473 23.9917 7.64411 22.5368C7.9335 21.082 8.64781 19.7456 9.6967 18.6967C10.7456 17.6478 12.082 16.9335 13.5368 16.6441C14.9917 16.3547 16.4997 16.5032 17.8701 17.0709C19.2406 17.6386 20.4119 18.5999 21.236 19.8332C22.0601 21.0666 22.5 22.5166 22.5 24C22.4977 25.9884 21.7068 27.8948 20.3008 29.3008C18.8948 30.7068 16.9884 31.4977 15 31.5Z" fill="white"/>
<path d="M18.9697 21.2197L14.1796 26.0097L11.7 24.15C11.5409 24.0307 11.3409 23.9794 11.1439 24.0076C10.947 24.0357 10.7694 24.1409 10.65 24.3C10.5307 24.4592 10.4794 24.6592 10.5075 24.8561C10.5357 25.053 10.6409 25.2307 10.8 25.35L13.8 27.6C13.9444 27.7083 14.1231 27.7609 14.3032 27.7481C14.4833 27.7354 14.6527 27.658 14.7803 27.5304L20.0303 22.2804C20.171 22.1397 20.25 21.9489 20.25 21.75C20.25 21.5511 20.171 21.3603 20.0303 21.2197C19.8897 21.079 19.6989 21 19.5 21C19.3011 21 19.1103 21.079 18.9697 21.2197Z" fill="white"/>
</svg>
